# xmcd
#
# Track frame offsets:
#	150
#	20510
#	46992
#	67990
#	94305
#	112027
#	134010
#	161335
#	187902
#	221400
#	245175
#	263567
#
# Disc length: 3787 seconds
#
# Revision: 0
# Processed by: cddbd v1.4PL0 Copyright (c) Steve Scherf et al.
# Submitted via: audiograbber 1.80
#
DISCID=a90ec90c
DTITLE=James Govan and the Boogie Blues Band - A Night on Beale
DYEAR=1999
DGENRE=Blues
TTITLE0=Sweet Soul Music
TTITLE1=Hound Dog
TTITLE2=Every Time I Roll the Dice
TTITLE3=Ain't No Sunshine
TTITLE4=Something to Talk About
TTITLE5=Dock of the Bay
TTITLE6=Green Onions
TTITLE7=Just A Little Bit
TTITLE8=You Can Have My Husband
TTITLE9=These Arms of Mine
TTITLE10=Shotgun
TTITLE11=Hideaway
EXTD=Live from Rum Boogie Cafe - Memphis blues from the heart of Beale St.
EXTT0=
EXTT1=
EXTT2=
EXTT3=
EXTT4=
EXTT5=
EXTT6=
EXTT7=
EXTT8=
EXTT9=
EXTT10=
EXTT11=
PLAYORDER=
